<svg xmlns="http://www.w3.org/2000/svg" width="117.415" height="45.173" viewBox="0 0 117.415 45.173"><g transform="translate(-68.335 -37.774)"><path d="M68.335,108.686H86.409L68.335,90.612Z" transform="translate(0 -25.751)" fill="#cc002f"/><path d="M280.193,37.778H262.119l18.074,18.074Z" transform="translate(-94.443 -0.002)" fill="#cc002f"/><path d="M117.663,104.739l10.83,10.83h18.049l-10.83-10.83Z" transform="translate(-24.041 -32.636)" fill="#cc002f"/><path d="M68.335,37.778V46.8l10.83,10.83V48.608h9.025l-10.83-10.83Z" transform="translate(0 -0.002)" fill="#cc002f"/><path d="M278.5,97.965l-10.83-10.83V96.16h-9.025l10.83,10.83H278.5Z" transform="translate(-92.75 -24.057)" fill="#cc002f"/><path d="M220.569,48.613l-10.83-10.83H191.665l10.83,10.83Z" transform="translate(-60.107 -0.004)" fill="#cc002f"/><path d="M150.073,48.613l-10.83-10.83H121.169L132,48.613Z" transform="translate(-25.75 -0.004)" fill="#cc002f"/><path d="M188.111,104.739l10.83,10.83h18.074l-10.83-10.83Z" transform="translate(-58.374 -32.636)" fill="#cc002f"/><path d="M150.8,74.22a2.282,2.282,0,0,0-1.533-.495h-1.9v3.931h1.9a2.132,2.132,0,0,0,1.533-.519,1.847,1.847,0,0,0,.544-1.434v-.05a1.634,1.634,0,0,0-.544-1.434" transform="translate(-38.518 -17.521)" fill="#fff"/><path d="M210.969,80.993h2.794l-1.409-4.4Z" transform="translate(-69.514 -18.918)" fill="#fff"/><path d="M162.393,67.568a8.6,8.6,0,0,1-2.893-1.681l2.052-2.819a9.616,9.616,0,0,0,1.953,1.236,5.013,5.013,0,0,0,2.126.47,1.868,1.868,0,0,0,1.162-.3.928.928,0,0,0,.4-.791v-.025a.871.871,0,0,0-.1-.42,1.2,1.2,0,0,0-.346-.371,4.032,4.032,0,0,0-.668-.371c-.3-.124-.642-.272-1.088-.42-.717-.247-1.36-.495-1.953-.766a6.684,6.684,0,0,1-1.533-.94,3.983,3.983,0,0,1-.989-1.261,3.833,3.833,0,0,1-.347-1.755v-.074a4.628,4.628,0,0,1,.371-1.879,4.2,4.2,0,0,1,1.063-1.459,5.193,5.193,0,0,1,1.706-.964,7,7,0,0,1,2.225-.346,9.8,9.8,0,0,1,2.868.42,7.554,7.554,0,0,1,2.522,1.409l-1.953,2.893a7.147,7.147,0,0,0-1.681-.989,4.773,4.773,0,0,0-1.83-.4,1.652,1.652,0,0,0-1.014.272.845.845,0,0,0-.346.717v.025a.845.845,0,0,0,.1.445,1.766,1.766,0,0,0,.371.4,4.592,4.592,0,0,0,.742.42,12.363,12.363,0,0,0,1.162.47,14.254,14.254,0,0,1,1.929.742,5.736,5.736,0,0,1,1.459.964,3.737,3.737,0,0,1,.915,1.261,3.927,3.927,0,0,1,.321,1.681v.05a4.64,4.64,0,0,1-.42,1.978,3.977,3.977,0,0,1-1.137,1.484,4.868,4.868,0,0,1-1.731.94,7.017,7.017,0,0,1-2.225.321,10.969,10.969,0,0,1-3.19-.569M155.866,62.2v5.687h-3.882V62.252l-4.846-9.42h4.277l2.522,5.44,2.547-5.44h4.2ZM146.1,67.889l-.89-2.72h-4.722l-.865,2.72h-3.981l5.291-15.132h3.906l5.316,15.132Zm-14.093-.544a9.5,9.5,0,0,1-3.263.544h-4.871V52.832h4.945a9.218,9.218,0,0,1,3.214.519,6.77,6.77,0,0,1,2.4,1.483,6.466,6.466,0,0,1,1.484,2.324,8.4,8.4,0,0,1,.495,3.016v.248a9.122,9.122,0,0,1-.495,3.041,6.564,6.564,0,0,1-1.484,2.349,6.443,6.443,0,0,1-2.423,1.533m-10.013.544h-3.882V52.832h3.882Zm-9.173,0-2.546-4.673h-1.385v4.673h-3.857V52.832h5.909a6.067,6.067,0,0,1,4.525,1.533,4.277,4.277,0,0,1,.964,1.484,5.709,5.709,0,0,1,.346,2.027v.1a4.727,4.727,0,0,1-.742,2.744,4.965,4.965,0,0,1-1.953,1.681l3.091,5.464H112.82v.025Zm-8.95-11.571H97.515v2.67h5.711v3.338H97.515v5.563H93.633V52.832h10.236v3.486ZM87.254,62.376h-.149a3.615,3.615,0,0,1-3.832-3.635,3.866,3.866,0,0,1,.915-2.6l1.484,1.088a2.152,2.152,0,0,0-.618,1.484c0,.964.841,1.681,2.077,1.681h.1c1.384,0,2.151-.742,2.151-1.706a1.445,1.445,0,0,0-.222-.865H88.045v1.187H86.537V56h3.585a4.654,4.654,0,0,1,.939,2.769,3.534,3.534,0,0,1-3.807,3.61m3.684,3.857H85.152v1.854H83.4V62.425h1.755v1.855h5.786ZM83.4,52.832h7.541V54.76H83.4ZM174.9,72.093V63.068l10.83,10.83V55.824l-18.049-18.05H149.611L160.44,48.6H142.416l-10.829-10.83H113.537L124.366,48.6H106.293l-10.83-10.83H77.389L88.219,48.6H79.194v9.025L68.364,46.8V64.873L86.438,82.947h18.074l-10.83-10.83h18.074l10.83,10.83H140.66L129.83,72.117H147.9l10.829,10.83h18.074L165.88,72.093Z" transform="translate(-0.014)" fill="#fff"/><path d="M185.293,73.9h-1.112v8.135h1.112a3.548,3.548,0,0,0,2.6-.964,3.97,3.97,0,0,0,.989-2.992v-.2a4.032,4.032,0,0,0-.989-3.016,3.508,3.508,0,0,0-2.6-.964" transform="translate(-56.459 -17.606)" fill="#fff"/><path d="M117.659,82.175h3.882V76.611h5.711V73.274h-5.711V70.6H127.9V67.117H117.659Z" transform="translate(-24.039 -14.301)" fill="#040506"/><path d="M147.736,72.538a1.883,1.883,0,0,1-.544,1.434,2.172,2.172,0,0,1-1.533.519h-1.9V70.559h1.9a2.282,2.282,0,0,1,1.533.495,1.844,1.844,0,0,1,.569,1.458v.025Zm3.14,2.546a4.727,4.727,0,0,0,.742-2.744v-.1a5.612,5.612,0,0,0-.346-2.027,3.861,3.861,0,0,0-.964-1.484,6.067,6.067,0,0,0-4.525-1.533h-5.909V82.254h3.857V77.582h1.385l2.546,4.673h4.376l-3.091-5.464a5.349,5.349,0,0,0,1.929-1.706" transform="translate(-34.865 -14.34)" fill="#040506"/><rect width="3.882" height="15.058" transform="translate(118.106 52.82)" fill="#040506"/><path d="M185.223,74.789a3.97,3.97,0,0,1-.989,2.992,3.586,3.586,0,0,1-2.6.964h-1.113V70.611h1.113a3.547,3.547,0,0,1,2.6.964,4.032,4.032,0,0,1,.989,3.016Zm3.956-.025v-.248a8.976,8.976,0,0,0-.494-3.016,6.159,6.159,0,0,0-1.484-2.324,6.363,6.363,0,0,0-2.4-1.483,9.317,9.317,0,0,0-3.214-.519h-4.945V82.231h4.871a9.032,9.032,0,0,0,3.263-.544,6.407,6.407,0,0,0,2.4-1.508,6.563,6.563,0,0,0,1.484-2.349,8.76,8.76,0,0,0,.519-3.066" transform="translate(-52.785 -14.328)" fill="#040506"/><path d="M205.445,76.315l1.409-4.4,1.409,4.4Zm-.519-9.321-5.291,15.132h3.981l.865-2.72H209.2l.89,2.72h4.055l-5.316-15.132Z" transform="translate(-63.99 -14.241)" fill="#040506"/><path d="M231.383,67.158,228.836,72.6l-2.522-5.439h-4.277l4.846,9.42v5.637h3.882V76.529l4.846-9.371Z" transform="translate(-74.908 -14.321)" fill="#040506"/><path d="M256.227,80.953a4.752,4.752,0,0,0,1.137-1.484,4.557,4.557,0,0,0,.42-1.978v-.05a3.923,3.923,0,0,0-.321-1.681,4.117,4.117,0,0,0-.915-1.261,5.745,5.745,0,0,0-1.459-.964,14.254,14.254,0,0,0-1.929-.742,12.519,12.519,0,0,1-1.162-.47,5.02,5.02,0,0,1-.742-.42,1.117,1.117,0,0,1-.371-.4.845.845,0,0,1-.1-.445v-.025a.914.914,0,0,1,.346-.717,1.548,1.548,0,0,1,1.014-.272,4.366,4.366,0,0,1,1.83.4,7.7,7.7,0,0,1,1.681.989l1.929-2.868a7.994,7.994,0,0,0-2.522-1.41,8.953,8.953,0,0,0-2.868-.42,7.007,7.007,0,0,0-2.225.347,4.8,4.8,0,0,0-1.706.964,4.115,4.115,0,0,0-1.063,1.458,4.631,4.631,0,0,0-.371,1.879v.074a4.112,4.112,0,0,0,.346,1.755,3.815,3.815,0,0,0,.989,1.261,7,7,0,0,0,1.533.939c.593.272,1.236.519,1.953.767a11.36,11.36,0,0,1,1.088.42,2.677,2.677,0,0,1,.667.371,1.19,1.19,0,0,1,.347.371.818.818,0,0,1,.1.42v.025a.93.93,0,0,1-.4.791,1.969,1.969,0,0,1-1.162.3,4.933,4.933,0,0,1-2.126-.47,8.654,8.654,0,0,1-1.953-1.236l-2.052,2.818a8.6,8.6,0,0,0,2.893,1.681,10.216,10.216,0,0,0,3.239.519,7.234,7.234,0,0,0,2.225-.321,4.369,4.369,0,0,0,1.706-.915" transform="translate(-86.667 -14.115)" fill="#040506"/><path d="M99.42,85.893H97.664v5.662H99.42V89.7h5.786V87.772H99.42Z" transform="translate(-14.294 -23.451)" fill="#040506"/><path d="M100.693,73.3v3.016H102.2V75.129h1.113a1.5,1.5,0,0,1,.222.865c0,.964-.766,1.706-2.151,1.706h-.1c-1.261,0-2.077-.742-2.077-1.681a2.152,2.152,0,0,1,.618-1.484l-1.484-1.088a3.867,3.867,0,0,0-.915,2.6,3.615,3.615,0,0,0,3.832,3.635h.148a3.534,3.534,0,0,0,3.808-3.61,4.65,4.65,0,0,0-.94-2.769Z" transform="translate(-14.18 -17.314)" fill="#040506"/><rect width="7.541" height="1.929" transform="translate(83.392 52.845)" fill="#040506"/></g></svg>